<svg width="286" height="40" viewBox="0 0 286 40" fill="none" xmlns="http://www.w3.org/2000/svg">
<g clip-path="url(#clip0_1_2)">
<path d="M86.7569 28.248C86.7569 29.112 86.5409 29.904 86.1089 30.624C85.6769 31.344 85.1009 31.92 84.3809 32.352C83.6609 32.784 82.8689 33 82.0049 33H72.3929C71.9369 33 71.5409 32.844 71.2049 32.532C70.8929 32.196 70.7369 31.8 70.7369 31.344V10.32C70.7369 9.84 70.8929 9.444 71.2049 9.132C71.5409 8.82 71.9369 8.664 72.3929 8.664H82.0049C82.8689 8.664 83.6609 8.88 84.3809 9.312C85.1009 9.744 85.6769 10.32 86.1089 11.04C86.5409 11.76 86.7569 12.564 86.7569 13.452V28.248ZM82.4729 28.248V13.452C82.4729 13.116 82.3169 12.948 82.0049 12.948H75.5249C75.2129 12.948 75.0569 13.104 75.0569 13.416V28.284C75.0569 28.596 75.2129 28.752 75.5249 28.752H82.0049C82.1249 28.752 82.2329 28.704 82.3289 28.608C82.4249 28.488 82.4729 28.368 82.4729 28.248ZM95.1221 10.968C95.1221 11.712 94.8461 12.36 94.2941 12.912C93.7661 13.44 93.1421 13.704 92.4221 13.704C91.6781 13.704 91.0301 13.44 90.4781 12.912C89.9501 12.36 89.6861 11.712 89.6861 10.968C89.6861 10.248 89.9501 9.624 90.4781 9.096C91.0301 8.544 91.6781 8.268 92.4221 8.268C93.1421 8.268 93.7661 8.544 94.2941 9.096C94.8461 9.624 95.1221 10.248 95.1221 10.968ZM94.5461 31.344C94.5461 31.8 94.3781 32.196 94.0421 32.532C93.7301 32.844 93.3461 33 92.8901 33H91.9181C91.4621 33 91.0661 32.844 90.7301 32.532C90.4181 32.196 90.2621 31.8 90.2621 31.344V16.404C90.2621 15.948 90.4181 15.564 90.7301 15.252C91.0661 14.916 91.4621 14.748 91.9181 14.748H92.8901C93.3461 14.748 93.7301 14.916 94.0421 15.252C94.3781 15.564 94.5461 15.948 94.5461 16.404V31.344ZM111.05 34.728C111.05 35.448 110.87 36.108 110.51 36.708C110.15 37.332 109.67 37.824 109.07 38.184C108.47 38.568 107.798 38.76 107.054 38.76H102.05C101.594 38.76 101.198 38.592 100.862 38.256C100.55 37.944 100.394 37.56 100.394 37.104V36.096C100.394 35.64 100.55 35.256 100.862 34.944C101.198 34.632 101.594 34.476 102.05 34.476H106.298C106.418 34.476 106.526 34.428 106.622 34.332C106.742 34.236 106.802 34.128 106.802 34.008V33.468C106.802 33.348 106.742 33.24 106.622 33.144C106.526 33.048 106.418 33 106.298 33H102.05C100.946 33 99.9981 32.616 99.2061 31.848C98.4141 31.056 98.0181 30.096 98.0181 28.968V18.384C98.0181 17.64 98.1981 16.968 98.5581 16.368C98.9421 15.744 99.4341 15.252 100.034 14.892C100.634 14.532 101.306 14.352 102.05 14.352H107.054C107.798 14.352 108.47 14.532 109.07 14.892C109.67 15.252 110.15 15.744 110.51 16.368C110.87 16.968 111.05 17.64 111.05 18.384V34.728ZM106.802 28.284V19.14C106.802 18.996 106.742 18.876 106.622 18.78C106.526 18.684 106.418 18.636 106.298 18.636H102.806C102.686 18.636 102.566 18.684 102.446 18.78C102.35 18.876 102.302 18.996 102.302 19.14V28.284C102.302 28.404 102.35 28.512 102.446 28.608C102.566 28.704 102.686 28.752 102.806 28.752H106.298C106.418 28.752 106.526 28.704 106.622 28.608C106.742 28.512 106.802 28.404 106.802 28.284ZM119.415 10.968C119.415 11.712 119.139 12.36 118.587 12.912C118.059 13.44 117.435 13.704 116.715 13.704C115.971 13.704 115.323 13.44 114.771 12.912C114.243 12.36 113.979 11.712 113.979 10.968C113.979 10.248 114.243 9.624 114.771 9.096C115.323 8.544 115.971 8.268 116.715 8.268C117.435 8.268 118.059 8.544 118.587 9.096C119.139 9.624 119.415 10.248 119.415 10.968ZM118.839 31.344C118.839 31.8 118.671 32.196 118.335 32.532C118.023 32.844 117.639 33 117.183 33H116.211C115.755 33 115.359 32.844 115.023 32.532C114.711 32.196 114.555 31.8 114.555 31.344V16.404C114.555 15.948 114.711 15.564 115.023 15.252C115.359 14.916 115.755 14.748 116.211 14.748H117.183C117.639 14.748 118.023 14.916 118.335 15.252C118.671 15.564 118.839 15.948 118.839 16.404V31.344ZM133.003 31.344C133.003 31.8 132.847 32.196 132.535 32.532C132.223 32.844 131.839 33 131.383 33H126.343C125.239 33 124.291 32.616 123.499 31.848C122.731 31.056 122.347 30.096 122.347 28.968V10.32C122.347 9.84 122.503 9.444 122.815 9.132C123.127 8.82 123.511 8.664 123.967 8.664H124.975C125.431 8.664 125.815 8.82 126.127 9.132C126.463 9.444 126.631 9.84 126.631 10.32V13.92C126.631 14.208 126.787 14.352 127.099 14.352H131.383C131.839 14.352 132.223 14.52 132.535 14.856C132.847 15.168 133.003 15.564 133.003 16.044V17.016C133.003 17.424 132.847 17.808 132.535 18.168C132.175 18.48 131.791 18.636 131.383 18.636H127.099C126.787 18.636 126.631 18.804 126.631 19.14V28.284C126.631 28.596 126.787 28.752 127.099 28.752H131.383C131.839 28.752 132.223 28.908 132.535 29.22C132.847 29.532 133.003 29.928 133.003 30.408V31.344ZM148.949 28.968C148.949 30.096 148.553 31.056 147.761 31.848C146.993 32.616 146.057 33 144.953 33H139.949C138.845 33 137.897 32.616 137.105 31.848C136.313 31.056 135.917 30.096 135.917 28.968V25.044C135.917 24.3 136.097 23.64 136.457 23.064C136.841 22.464 137.333 21.984 137.933 21.624C138.533 21.264 139.205 21.084 139.949 21.084H144.197C144.317 21.084 144.425 21.036 144.521 20.94C144.641 20.844 144.701 20.724 144.701 20.58V19.14C144.701 18.996 144.641 18.876 144.521 18.78C144.425 18.684 144.317 18.636 144.197 18.636H139.949C139.493 18.636 139.097 18.48 138.761 18.168C138.449 17.856 138.293 17.472 138.293 17.016V16.044C138.293 15.564 138.449 15.168 138.761 14.856C139.097 14.52 139.493 14.352 139.949 14.352H144.953C145.697 14.352 146.369 14.532 146.969 14.892C147.569 15.252 148.049 15.744 148.409 16.368C148.769 16.968 148.949 17.64 148.949 18.384V28.968ZM144.701 28.284V25.8C144.701 25.68 144.641 25.572 144.521 25.476C144.425 25.38 144.317 25.332 144.197 25.332H140.705C140.585 25.332 140.465 25.38 140.345 25.476C140.249 25.572 140.201 25.68 140.201 25.8V28.284C140.201 28.404 140.249 28.512 140.345 28.608C140.465 28.704 140.585 28.752 140.705 28.752H144.197C144.317 28.752 144.425 28.704 144.521 28.608C144.641 28.512 144.701 28.404 144.701 28.284ZM158.43 31.344C158.43 31.8 158.262 32.196 157.926 32.532C157.614 32.844 157.23 33 156.774 33H155.874C154.77 33 153.822 32.616 153.03 31.848C152.238 31.056 151.842 30.096 151.842 28.968V10.32C151.842 9.84 151.998 9.444 152.31 9.132C152.646 8.82 153.042 8.664 153.498 8.664H154.506C154.962 8.664 155.346 8.82 155.658 9.132C155.994 9.444 156.162 9.84 156.162 10.32V28.284C156.162 28.596 156.306 28.752 156.594 28.752H156.774C157.23 28.752 157.614 28.908 157.926 29.22C158.262 29.532 158.43 29.928 158.43 30.408V31.344ZM186.049 28.248C186.049 29.112 185.833 29.904 185.401 30.624C184.969 31.344 184.393 31.92 183.673 32.352C182.953 32.784 182.161 33 181.297 33H174.385C173.521 33 172.717 32.784 171.973 32.352C171.253 31.92 170.677 31.344 170.245 30.624C169.813 29.904 169.597 29.112 169.597 28.248V27.168C169.597 26.712 169.753 26.328 170.065 26.016C170.401 25.68 170.797 25.512 171.253 25.512H172.261C172.693 25.512 173.065 25.68 173.377 26.016C173.713 26.328 173.881 26.712 173.881 27.168V28.248C173.881 28.368 173.929 28.488 174.025 28.608C174.145 28.704 174.265 28.752 174.385 28.752H181.297C181.417 28.752 181.525 28.704 181.621 28.608C181.717 28.488 181.765 28.368 181.765 28.248V24.972C181.765 24.708 181.645 24.54 181.405 24.468L172.765 21.228C171.805 20.892 171.037 20.304 170.461 19.464C169.885 18.624 169.597 17.7 169.597 16.692V13.452C169.597 12.564 169.813 11.76 170.245 11.04C170.677 10.32 171.253 9.744 171.973 9.312C172.717 8.88 173.521 8.664 174.385 8.664H181.297C182.161 8.664 182.953 8.88 183.673 9.312C184.393 9.744 184.969 10.32 185.401 11.04C185.833 11.76 186.049 12.564 186.049 13.452V14.424C186.049 14.88 185.881 15.264 185.545 15.576C185.233 15.888 184.849 16.044 184.393 16.044H183.421C182.965 16.044 182.569 15.888 182.233 15.576C181.921 15.264 181.765 14.88 181.765 14.424V13.452C181.765 13.116 181.609 12.948 181.297 12.948H174.385C174.265 12.948 174.145 12.996 174.025 13.092C173.929 13.188 173.881 13.308 173.881 13.452V16.692C173.881 16.98 174.001 17.16 174.241 17.232L182.917 20.472C183.853 20.808 184.609 21.396 185.185 22.236C185.761 23.076 186.049 23.988 186.049 24.972V28.248ZM199.659 31.344C199.659 31.8 199.503 32.196 199.191 32.532C198.879 32.844 198.495 33 198.039 33H192.999C191.895 33 190.947 32.616 190.155 31.848C189.387 31.056 189.003 30.096 189.003 28.968V10.32C189.003 9.84 189.159 9.444 189.471 9.132C189.783 8.82 190.167 8.664 190.623 8.664H191.631C192.087 8.664 192.471 8.82 192.783 9.132C193.119 9.444 193.287 9.84 193.287 10.32V13.92C193.287 14.208 193.443 14.352 193.755 14.352H198.039C198.495 14.352 198.879 14.52 199.191 14.856C199.503 15.168 199.659 15.564 199.659 16.044V17.016C199.659 17.424 199.503 17.808 199.191 18.168C198.831 18.48 198.447 18.636 198.039 18.636H193.755C193.443 18.636 193.287 18.804 193.287 19.14V28.284C193.287 28.596 193.443 28.752 193.755 28.752H198.039C198.495 28.752 198.879 28.908 199.191 29.22C199.503 29.532 199.659 29.928 199.659 30.408V31.344ZM215.605 28.968C215.605 30.096 215.209 31.056 214.417 31.848C213.649 32.616 212.713 33 211.609 33H206.605C205.501 33 204.553 32.616 203.761 31.848C202.969 31.056 202.573 30.096 202.573 28.968V16.044C202.573 15.564 202.729 15.168 203.041 14.856C203.377 14.52 203.773 14.352 204.229 14.352H205.237C205.693 14.352 206.077 14.52 206.389 14.856C206.701 15.168 206.857 15.564 206.857 16.044V28.284C206.857 28.404 206.905 28.512 207.001 28.608C207.121 28.704 207.241 28.752 207.361 28.752H210.853C210.973 28.752 211.081 28.704 211.177 28.608C211.297 28.512 211.357 28.404 211.357 28.284V16.044C211.357 15.564 211.513 15.168 211.825 14.856C212.137 14.52 212.521 14.352 212.977 14.352H213.985C214.441 14.352 214.825 14.52 215.137 14.856C215.449 15.168 215.605 15.564 215.605 16.044V28.968ZM231.566 28.968C231.566 30.096 231.17 31.056 230.378 31.848C229.61 32.616 228.674 33 227.57 33H222.566C221.462 33 220.514 32.616 219.722 31.848C218.93 31.056 218.534 30.096 218.534 28.968V18.384C218.534 17.64 218.714 16.968 219.074 16.368C219.458 15.744 219.95 15.252 220.55 14.892C221.15 14.532 221.822 14.352 222.566 14.352H226.814C227.15 14.352 227.318 14.208 227.318 13.92V10.32C227.318 9.84 227.474 9.444 227.786 9.132C228.098 8.82 228.482 8.664 228.938 8.664H229.946C230.402 8.664 230.786 8.82 231.098 9.132C231.41 9.444 231.566 9.84 231.566 10.32V28.968ZM227.318 28.284V19.14C227.318 18.804 227.15 18.636 226.814 18.636H223.322C223.202 18.636 223.082 18.684 222.962 18.78C222.866 18.876 222.818 18.996 222.818 19.14V28.284C222.818 28.404 222.866 28.512 222.962 28.608C223.082 28.704 223.202 28.752 223.322 28.752H226.814C227.15 28.752 227.318 28.596 227.318 28.284ZM247.527 22.308C247.527 23.028 247.347 23.7 246.987 24.324C246.627 24.924 246.147 25.416 245.547 25.8C244.947 26.16 244.275 26.34 243.531 26.34H239.283C239.163 26.34 239.043 26.388 238.923 26.484C238.827 26.556 238.779 26.652 238.779 26.772V28.284C238.779 28.404 238.827 28.512 238.923 28.608C239.043 28.704 239.163 28.752 239.283 28.752H243.531C243.987 28.752 244.371 28.908 244.683 29.22C245.019 29.532 245.187 29.928 245.187 30.408V31.344C245.187 31.8 245.019 32.196 244.683 32.532C244.371 32.844 243.987 33 243.531 33H238.527C237.423 33 236.475 32.616 235.683 31.848C234.891 31.056 234.495 30.096 234.495 28.968V18.384C234.495 17.64 234.675 16.968 235.035 16.368C235.419 15.768 235.911 15.288 236.511 14.928C237.111 14.544 237.783 14.352 238.527 14.352H243.531C244.275 14.352 244.947 14.544 245.547 14.928C246.147 15.288 246.627 15.768 246.987 16.368C247.347 16.968 247.527 17.64 247.527 18.384V22.308ZM243.279 21.588V19.14C243.279 18.996 243.219 18.876 243.099 18.78C243.003 18.684 242.895 18.636 242.775 18.636H239.283C239.163 18.636 239.043 18.684 238.923 18.78C238.827 18.876 238.779 18.996 238.779 19.14V21.588C238.779 21.684 238.827 21.78 238.923 21.876C239.043 21.972 239.163 22.02 239.283 22.02H242.775C242.895 22.02 243.003 21.972 243.099 21.876C243.219 21.78 243.279 21.684 243.279 21.588ZM263.488 31.344C263.488 31.8 263.332 32.196 263.02 32.532C262.708 32.844 262.324 33 261.868 33H260.86C260.404 33 260.02 32.844 259.708 32.532C259.396 32.196 259.24 31.8 259.24 31.344V19.14C259.24 18.996 259.18 18.876 259.06 18.78C258.964 18.684 258.856 18.636 258.736 18.636H255.244C255.124 18.636 255.004 18.684 254.884 18.78C254.788 18.876 254.74 18.996 254.74 19.14V31.344C254.74 31.8 254.584 32.196 254.272 32.532C253.96 32.844 253.576 33 253.12 33H252.112C251.656 33 251.26 32.844 250.924 32.532C250.612 32.196 250.456 31.8 250.456 31.344V18.384C250.456 17.64 250.636 16.968 250.996 16.368C251.38 15.744 251.872 15.252 252.472 14.892C253.072 14.532 253.744 14.352 254.488 14.352H259.492C260.236 14.352 260.908 14.532 261.508 14.892C262.108 15.252 262.588 15.744 262.948 16.368C263.308 16.968 263.488 17.64 263.488 18.384V31.344ZM277.109 31.344C277.109 31.8 276.953 32.196 276.641 32.532C276.329 32.844 275.945 33 275.489 33H270.449C269.345 33 268.397 32.616 267.605 31.848C266.837 31.056 266.453 30.096 266.453 28.968V10.32C266.453 9.84 266.609 9.444 266.921 9.132C267.233 8.82 267.617 8.664 268.073 8.664H269.081C269.537 8.664 269.921 8.82 270.233 9.132C270.569 9.444 270.737 9.84 270.737 10.32V13.92C270.737 14.208 270.893 14.352 271.205 14.352H275.489C275.945 14.352 276.329 14.52 276.641 14.856C276.953 15.168 277.109 15.564 277.109 16.044V17.016C277.109 17.424 276.953 17.808 276.641 18.168C276.281 18.48 275.897 18.636 275.489 18.636H271.205C270.893 18.636 270.737 18.804 270.737 19.14V28.284C270.737 28.596 270.893 28.752 271.205 28.752H275.489C275.945 28.752 276.329 28.908 276.641 29.22C276.953 29.532 277.109 29.928 277.109 30.408V31.344Z" fill="#297AFF"/>
<path fill-rule="evenodd" clip-rule="evenodd" d="M17 0C17.5523 0 18 0.447715 18 1V8.39648C18 8.61918 18.2693 8.7307 18.4268 8.57324L26.4141 0.585938C26.7891 0.210936 27.2978 7.97938e-05 27.8281 0H36.5859C36.8511 4.04019e-05 37.1055 0.105468 37.293 0.292969L40.293 3.29297C40.6834 3.68347 40.6834 4.31653 40.293 4.70703L36.4268 8.57324C36.2693 8.73073 36.3808 8.99997 36.6035 9H44.5859C44.8511 9.00004 45.1055 9.10547 45.293 9.29297L48.293 12.293C48.6834 12.6835 48.6834 13.3165 48.293 13.707L44.3535 17.6465C44.1583 17.8417 44.1583 18.1583 44.3535 18.3535L47.5859 21.5859C48.4914 22.4914 49 23.7195 49 25C49 26.2805 48.4913 27.5086 47.5859 28.4141L36.5859 39.4141C36.2109 39.7891 35.7022 39.9999 35.1719 40H32C31.4477 40 31 39.5523 31 39V31.6035C31 31.3808 30.7307 31.2693 30.5732 31.4268L22.5859 39.4141C22.2109 39.7891 21.7022 39.9999 21.1719 40H12.4141C12.1489 40 11.8945 39.8945 11.707 39.707L8.70703 36.707C8.31661 36.3165 8.31661 35.6835 8.70703 35.293L12.5732 31.4268C12.7307 31.2693 12.6192 31 12.3965 31H4.41406C4.1489 31 3.89453 30.8945 3.70703 30.707L0.707031 27.707C0.316606 27.3165 0.316607 26.6835 0.707031 26.293L4.64648 22.3535C4.8417 22.1583 4.8417 21.8417 4.64648 21.6465L1.41406 18.4141C0.508652 17.5086 0 16.2805 0 15C0 13.7195 0.508651 12.4914 1.41406 11.5859L12.4141 0.585938C12.7891 0.210936 13.2978 8.00463e-05 13.8281 0H17ZM20.0713 9C18.7452 9 17.4728 9.52716 16.5352 10.4648L5.85352 21.1465C5.53861 21.4615 5.76165 21.9999 6.20703 22H20.793C21.2383 22.0001 21.4613 22.5386 21.1465 22.8535L13.8535 30.1465C13.5386 30.4615 13.7616 30.9999 14.207 31H28.9287C30.2548 31 31.5272 30.4728 32.4648 29.5352L43.1465 18.8535C43.4417 18.5583 43.2642 18.0663 42.874 18.0059L42.793 18H28.207C27.7616 18 27.5386 17.4615 27.8535 17.1465L35.1465 9.85352C35.4614 9.53855 35.2384 9.00006 34.793 9H20.0713Z" fill="#297AFF"/>
</g>
<defs>
<clipPath id="clip0_1_2">
<rect width="286" height="40" fill="white"/>
</clipPath>
</defs>
</svg>
